<svg viewBox="0 0 64 64" xmlns="http://www.w3.org/2000/svg">
  <defs>
    <linearGradient id="bg" x1="0" y1="0" x2="1" y2="1">
      <stop offset="0" stop-color="#7c5cbf"/>
      <stop offset="1" stop-color="#160f22"/>
    </linearGradient>
  </defs>
  <rect width="64" height="64" rx="16" fill="url(#bg)"/>
  <path d="M34 12c2 8-6 10-6 17 0 4 3 7 7 7 5 0 9-4 9-10 0-2-1-4-2-5 1 6-3 8-5 6-3-3 3-10-3-15z"
        fill="#f0a35e"/>
  <path d="M30 24c-4 2-7 6-7 11 0 6 5 11 11 11-6-1-9-6-9-11 0-4 2-8 5-11z" fill="#ffb86b" opacity="0.85"/>
</svg>
