<svg width="512" height="512" viewBox="0 0 512 512" xmlns="http://www.w3.org/2000/svg">
  <defs>
    <linearGradient id="bg" x1="0" y1="0" x2="1" y2="1">
      <stop offset="0" stop-color="#8a68d0"/>
      <stop offset="0.55" stop-color="#5a3f93"/>
      <stop offset="1" stop-color="#160f22"/>
    </linearGradient>
    <radialGradient id="glow" cx="0.5" cy="0.42" r="0.5">
      <stop offset="0" stop-color="#f0a35e" stop-opacity="0.45"/>
      <stop offset="1" stop-color="#f0a35e" stop-opacity="0"/>
    </radialGradient>
  </defs>

  <rect width="512" height="512" fill="url(#bg)"/>
  <circle cx="256" cy="215" r="150" fill="url(#glow)"/>

  <!-- огонёк (центрированный, в безопасной зоне для maskable) -->
  <path d="M286 96c16 56-44 74-44 124 0 30 22 52 52 52 38 0 66-30 66-74 0-16-7-30-16-40 8 44-22 58-38 44-22-20 22-72-20-106z"
        fill="#f0a35e"/>
  <path d="M254 184c-30 16-50 46-50 84 0 44 36 80 82 80-44-8-66-44-66-84 0-30 14-58 34-80z"
        fill="#ffb86b"/>

  <!-- маленькая перечёркнутая банка -->
  <g transform="translate(196 330)">
    <rect x="0" y="0" width="58" height="96" rx="11" fill="#cdb4f6"/>
    <rect x="0" y="0" width="58" height="20" rx="10" fill="#a78bda"/>
    <rect x="18" y="-14" width="22" height="16" rx="5" fill="#7c5cbf"/>
    <path d="M33 30l-15 26h11l-7 22 22-30h-11l8-18z" fill="#7c5cbf"/>
    <line x1="-12" y1="104" x2="74" y2="-4" stroke="#c46b8a" stroke-width="11" stroke-linecap="round"/>
  </g>
</svg>
